<svg width="157" height="41" viewBox="0 0 157 41" fill="none" xmlns="http://www.w3.org/2000/svg">
<g clip-path="url(#clip0_6318_26192)">
<path d="M37.101 28.1547V4.87793H41.267L52.1395 22.0029V4.87793H55.933V28.1547H51.7669L40.8607 11.0629V28.1547H37.101Z" fill="#059661"/>
<path d="M59.4486 28.1547V4.87793H63.4114V28.1547H59.4486Z" fill="#059661"/>
<path d="M66.9269 28.1547V4.87793H71.093L81.9654 22.0029V4.87793H85.7589V28.1547H81.5928L70.6865 11.0629V28.1547H66.9269Z" fill="#059661"/>
<path d="M105.261 28.1546L103.161 22.6679H93.4066L91.3066 28.1546H87.2083L96.4211 4.87793H100.113L109.36 28.1546H105.261ZM94.6937 19.3094H101.874L98.284 9.99874L94.6937 19.3094Z" fill="#0A1E29"/>
<path d="M125.712 11.3955V28.1548H122.02V25.3615C121.433 26.2926 120.654 27.0353 119.683 27.5894C118.712 28.1437 117.628 28.4208 116.432 28.4208C114.58 28.4208 113.084 27.8721 111.944 26.7748C110.803 25.6775 110.233 24.231 110.233 22.4354V11.3956H113.925V21.6041C113.925 22.6681 114.241 23.5272 114.874 24.1811C115.506 24.8351 116.364 25.1621 117.448 25.1621C118.87 25.1621 119.988 24.5968 120.801 23.4663C121.614 22.3356 122.02 20.7617 122.02 18.7444V11.3956H125.712V11.3955Z" fill="#0A1E29"/>
<path d="M138.61 28.0212C137.797 28.2873 136.894 28.4202 135.9 28.4202C134.207 28.4202 132.846 27.9547 131.819 27.0237C130.791 26.0926 130.278 24.707 130.278 22.8671V14.4875H127.297V11.395H130.278V6.40723H133.97V11.395H138.373V14.4875H133.97V22.6675C133.97 23.4878 134.178 24.114 134.596 24.5462C135.014 24.9786 135.584 25.1947 136.307 25.1947C137.12 25.1947 137.808 25.0618 138.373 24.7957L138.61 28.0211L138.61 28.0212Z" fill="#0A1E29"/>
<path d="M141.177 28.155V4.6123H144.869V14.2888C146.066 12.1829 147.928 11.1298 150.457 11.1298C152.399 11.1298 153.952 11.6785 155.115 12.7758C156.278 13.8731 156.859 15.3307 156.859 17.1485V28.155H153.167V17.9798C153.167 16.8714 152.834 15.9958 152.168 15.3529C151.502 14.71 150.593 14.3886 149.441 14.3886C148.019 14.3886 146.901 14.965 146.088 16.1177C145.275 17.2705 144.869 18.8667 144.869 20.9062V28.1551H141.177V28.155Z" fill="#0A1E29"/>
<path d="M131.096 39.7156C130.82 39.7156 130.567 39.659 130.337 39.546C130.106 39.4328 129.948 39.2901 129.863 39.1178V39.6566H129.224V34.4316H129.863V36.4686C129.983 36.2914 130.158 36.1487 130.386 36.0404C130.614 35.9322 130.853 35.8781 131.104 35.8781C131.675 35.8781 132.121 36.0565 132.442 36.4132C132.762 36.7698 132.923 37.2311 132.923 37.797C132.923 38.3627 132.761 38.824 132.438 39.1807C132.115 39.5373 131.667 39.7157 131.096 39.7157L131.096 39.7156ZM130.145 38.7821C130.368 39.0305 130.665 39.1548 131.036 39.1548C131.407 39.1548 131.705 39.0305 131.93 38.7821C132.156 38.5336 132.269 38.2052 132.269 37.7969C132.269 37.3885 132.156 37.0601 131.93 36.8116C131.705 36.5631 131.407 36.4389 131.036 36.4389C130.665 36.4389 130.368 36.5631 130.145 36.8116C129.922 37.06 129.811 37.3885 129.811 37.7969C129.811 38.2052 129.922 38.5336 130.145 38.7821Z" fill="#0A1E29"/>
<path d="M136.11 35.9375H136.764L134.779 41.0002H134.125L134.674 39.6053L133.193 35.9375H133.885L134.997 38.7862L136.11 35.9375Z" fill="#0A1E29"/>
<path d="M139.222 39.6572V34.4912H139.981L142.635 38.6018V34.4912H143.304V39.6572H142.545L139.891 35.5613V39.6572H139.222Z" fill="#0A1E29"/>
<path d="M144.401 39.6572V34.4912H145.085V39.6572H144.401Z" fill="#0A1E29"/>
<path d="M146.175 39.6572V34.4912H147.002L148.776 38.683L150.55 34.4912H151.377V39.6572H150.701V35.7606L149.062 39.6572H148.491L146.844 35.7606V39.6572H146.175Z" fill="#0A1E29"/>
<path d="M154.782 39.7156C154.071 39.7156 153.467 39.4856 152.971 39.0256C152.475 38.5656 152.227 37.9149 152.227 37.0737C152.227 36.2324 152.476 35.5817 152.975 35.1217C153.473 34.6617 154.076 34.4316 154.782 34.4316C155.354 34.4316 155.839 34.5781 156.237 34.8708C156.635 35.1636 156.89 35.5608 157 36.0626L156.323 36.2103C156.238 35.8364 156.062 35.5461 155.794 35.3394C155.525 35.1328 155.186 35.0295 154.775 35.0295C154.224 35.0295 153.779 35.2091 153.441 35.5683C153.102 35.9275 152.933 36.4293 152.933 37.0738C152.933 37.7183 153.102 38.2189 153.441 38.5755C153.779 38.9322 154.224 39.1106 154.775 39.1106C155.181 39.1106 155.515 39.0122 155.778 38.8154C156.042 38.6186 156.221 38.3407 156.316 37.9815L157 38.1218C156.865 38.6138 156.602 39.0025 156.211 39.2878C155.82 39.5732 155.344 39.7159 154.782 39.7159V39.7156Z" fill="#0A1E29"/>
<path fill-rule="evenodd" clip-rule="evenodd" d="M15.847 0C24.5988 0 31.6935 6.96522 31.6935 15.5572C31.6935 24.1494 24.5988 31.1146 15.847 31.1146C7.0952 31.1146 0.000610352 24.1494 0.000610352 15.5572C0.000610352 6.96522 7.0952 0 15.847 0ZM18.8137 24.2379H12.8984C11.5432 24.2726 10.4371 22.9254 10.7583 21.6326L12.5175 15.8079C11.06 14.5995 10.3952 12.6934 10.8129 10.8094C11.2316 8.92278 12.8072 7.38771 14.7333 6.98988C16.291 6.66723 17.8806 7.03826 19.0943 8.00484C20.3081 8.97202 21.0044 10.4061 21.0044 11.939C21.0044 13.4393 20.3302 14.849 19.1769 15.8068L20.9402 21.5784C21.2827 22.9298 20.1988 24.2575 18.8143 24.2379H18.8138H18.8137Z" fill="#059661"/>
<path d="M15.6329 38.7093C10.6075 38.7093 5.58212 36.8329 1.75433 33.0802C1.0202 32.3709 0.973354 31.2128 1.66532 30.4486C2.37981 29.6592 3.60964 29.5881 4.41348 30.2893L4.41461 30.2903C4.44303 30.3152 4.47084 30.3408 4.49779 30.3673C10.6321 36.3893 20.6092 36.3956 26.7507 30.3842C27.1042 30.0281 27.5982 29.807 28.1446 29.807C29.2198 29.807 30.0916 30.6623 30.0916 31.7178C30.0916 32.2247 29.8865 32.7119 29.5212 33.0703C25.6922 36.8296 20.6626 38.7092 15.6329 38.7092H15.6329L15.6329 38.7093Z" fill="#059661" fill-opacity="0.980392"/>
<path d="M28.1446 29.8077C27.5981 29.8077 27.1042 30.0288 26.7507 30.3849C23.6827 33.388 19.6576 34.8891 15.6322 34.8889V38.71L15.6329 38.7099C20.6625 38.7099 25.6922 36.8304 29.5213 33.0711C29.8864 32.7126 30.0916 32.2256 30.0916 31.7187C30.0914 30.6628 29.2199 29.8076 28.1446 29.8076V29.8077Z" fill="#12BA74" fill-opacity="0.980392"/>
</g>
<defs>
<clipPath id="clip0_6318_26192">
<rect width="157" height="41" fill="white"/>
</clipPath>
</defs>
</svg>
