<svg width="84" height="84" viewBox="0 0 84 84" fill="none" xmlns="http://www.w3.org/2000/svg">
<rect x="0.5" y="0.5" width="83" height="83" rx="41.5" fill="#F5F4F3"/>
<path d="M18.78 28.96L39.11 29.4L61.16 28.91L61.29 25.5H18.84L18.77 28.96H18.78Z" fill="#083C2F"/>
<path d="M17.61 60.5H58.45L58.99 59.43L60.09 59.25L60.39 50.71L61.17 28.5H18.74L17.61 60.5Z" fill="#C2FFDF"/>
<path d="M49.5 35.4978H33.5V34.4978H49.5V35.4978ZM26.32 36.2278C26.74 36.2278 27.11 36.0178 27.33 35.6978C27.4396 35.5393 27.5103 35.3573 27.5365 35.1664C27.5628 34.9755 27.5438 34.7811 27.4811 34.599C27.4183 34.4168 27.3137 34.2519 27.1755 34.1176C27.0373 33.9833 26.8695 33.8834 26.6856 33.826C26.5017 33.7685 26.3068 33.7551 26.1168 33.7868C25.9267 33.8185 25.7468 33.8944 25.5915 34.0085C25.4362 34.1225 25.3099 34.2715 25.2228 34.4433C25.1357 34.6152 25.0902 34.8051 25.09 34.9978C25.09 35.6778 25.64 36.2278 26.32 36.2278ZM26.32 45.2278C26.6462 45.2278 26.9591 45.0982 27.1897 44.8676C27.4204 44.6369 27.55 44.324 27.55 43.9978C27.55 43.6716 27.4204 43.3587 27.1897 43.1281C26.9591 42.8974 26.6462 42.7678 26.32 42.7678C25.9938 42.7678 25.6809 42.8974 25.4503 43.1281C25.2196 43.3587 25.09 43.6716 25.09 43.9978C25.09 44.324 25.2196 44.6369 25.4503 44.8676C25.6809 45.0982 25.9938 45.2278 26.32 45.2278ZM49.5 43.4978H33.5V44.4978H49.5V43.4978ZM26.32 54.2278C26.6462 54.2278 26.9591 54.0982 27.1897 53.8676C27.4204 53.6369 27.55 53.324 27.55 52.9978C27.55 52.6716 27.4204 52.3587 27.1897 52.1281C26.9591 51.8974 26.6462 51.7678 26.32 51.7678C25.9938 51.7678 25.6809 51.8974 25.4503 52.1281C25.2196 52.3587 25.09 52.6716 25.09 52.9978C25.09 53.324 25.2196 53.6369 25.4503 53.8676C25.6809 54.0982 25.9938 54.2278 26.32 54.2278ZM49.5 52.4978H33.5V53.4978H49.5V52.4978Z" fill="#192C55"/>
<path d="M54.001 64.502C48.868 62.47 45.5 57.563 45.5 52.09V46.86L54.001 43.5L62.502 46.86V52.09C62.502 57.555 59.133 62.47 54.001 64.502Z" fill="#00A86B"/>
<path d="M51 53L53.5 56.5L58 51" stroke="white"/>
</svg>
