<svg width="390" height="81" viewBox="0 0 390 81" fill="none" xmlns="http://www.w3.org/2000/svg">
<rect width="390" height="81" rx="12" fill="white"/>
<g clip-path="url(#clip0_11185_7893)">
<path d="M26.8325 32.9167C26.8325 32.342 27.0608 31.7909 27.4671 31.3846C27.8735 30.9783 28.4246 30.75 28.9992 30.75C29.5738 30.75 30.1249 30.9783 30.5313 31.3846C30.9376 31.7909 31.1659 32.342 31.1659 32.9167C32.41 33.5049 33.4705 34.4207 34.2339 35.5657C34.9973 36.7108 35.4347 38.042 35.4992 39.4167V42.6667C35.5807 43.3402 35.8192 43.9851 36.1956 44.5496C36.5719 45.1141 37.0755 45.5824 37.6659 45.9167H20.3325C20.9229 45.5824 21.4265 45.1141 21.8028 44.5496C22.1791 43.9851 22.4177 43.3402 22.4992 42.6667V39.4167C22.5637 38.042 23.0011 36.7108 23.7645 35.5657C24.5278 34.4207 25.5884 33.5049 26.8325 32.9167Z" fill="#008643" stroke="#008643" stroke-width="1.5" stroke-linecap="round" stroke-linejoin="round"/>
<path d="M25.75 45.9167V47.0001C25.75 47.862 26.0924 48.6887 26.7019 49.2982C27.3114 49.9077 28.138 50.2501 29 50.2501C29.862 50.2501 30.6886 49.9077 31.2981 49.2982C31.9076 48.6887 32.25 47.862 32.25 47.0001V45.9167" stroke="#008643" stroke-width="1.5" stroke-linecap="round" stroke-linejoin="round"/>
<circle cx="34.909" cy="34.5908" r="4.22727" fill="#E4572E" stroke="white"/>
</g>
<path d="M53.309 38V25.335H57.916C58.766 25.335 59.514 25.4937 60.16 25.811C60.806 26.117 61.3103 26.5703 61.673 27.171C62.047 27.7603 62.234 28.4687 62.234 29.296C62.234 30.1687 62.013 30.9167 61.571 31.54C61.1403 32.1633 60.5567 32.6167 59.82 32.9L62.744 38H60.466L57.355 32.475L58.664 33.24H55.315V38H53.309ZM55.315 31.455H57.95C58.4147 31.455 58.817 31.3643 59.157 31.183C59.497 31.0017 59.7577 30.7523 59.939 30.435C60.1317 30.1063 60.228 29.721 60.228 29.279C60.228 28.837 60.1317 28.4573 59.939 28.14C59.7577 27.8113 59.497 27.562 59.157 27.392C58.817 27.2107 58.4147 27.12 57.95 27.12H55.315V31.455ZM66.999 38.204C66.3757 38.204 65.826 38.0963 65.35 37.881C64.8854 37.6543 64.5227 37.3483 64.262 36.963C64.0014 36.5663 63.871 36.1017 63.871 35.569C63.871 35.0703 63.9787 34.6227 64.194 34.226C64.4207 33.8293 64.7664 33.495 65.231 33.223C65.6957 32.951 66.2794 32.7583 66.982 32.645L70.178 32.118V33.631L67.356 34.124C66.846 34.2147 66.472 34.379 66.234 34.617C65.996 34.8437 65.877 35.1383 65.877 35.501C65.877 35.8523 66.0074 36.1413 66.268 36.368C66.54 36.5833 66.8857 36.691 67.305 36.691C67.8264 36.691 68.2797 36.5777 68.665 36.351C69.0617 36.1243 69.3677 35.824 69.583 35.45C69.7984 35.0647 69.906 34.6397 69.906 34.175V31.812C69.906 31.3587 69.736 30.9903 69.396 30.707C69.0674 30.4123 68.6254 30.265 68.07 30.265C67.56 30.265 67.1124 30.401 66.727 30.673C66.353 30.9337 66.0754 31.2737 65.894 31.693L64.296 30.894C64.466 30.4407 64.7437 30.044 65.129 29.704C65.5144 29.3527 65.962 29.0807 66.472 28.888C66.9934 28.6953 67.543 28.599 68.121 28.599C68.8464 28.599 69.4867 28.735 70.042 29.007C70.6087 29.279 71.045 29.6587 71.351 30.146C71.6684 30.622 71.827 31.1773 71.827 31.812V38H69.991V36.334L70.382 36.385C70.1667 36.759 69.889 37.082 69.549 37.354C69.2204 37.626 68.8407 37.8357 68.41 37.983C67.9907 38.1303 67.5204 38.204 66.999 38.204ZM77.8852 38.102C76.9218 38.102 76.1738 37.83 75.6412 37.286C75.1085 36.742 74.8422 35.977 74.8422 34.991V30.537H73.2272V28.803H73.4822C73.9128 28.803 74.2472 28.6783 74.4852 28.429C74.7232 28.1797 74.8422 27.8397 74.8422 27.409V26.695H76.7632V28.803H78.8542V30.537H76.7632V34.906C76.7632 35.2233 76.8142 35.4953 76.9162 35.722C77.0182 35.9373 77.1825 36.1073 77.4092 36.232C77.6358 36.3453 77.9305 36.402 78.2932 36.402C78.3838 36.402 78.4858 36.3963 78.5992 36.385C78.7125 36.3737 78.8202 36.3623 78.9222 36.351V38C78.7635 38.0227 78.5878 38.0453 78.3952 38.068C78.2025 38.0907 78.0325 38.102 77.8852 38.102ZM84.9488 38.204C84.0308 38.204 83.2148 37.9943 82.5008 37.575C81.7981 37.1443 81.2485 36.5663 80.8518 35.841C80.4551 35.1043 80.2568 34.2827 80.2568 33.376C80.2568 32.4467 80.4551 31.625 80.8518 30.911C81.2598 30.197 81.8038 29.636 82.4838 29.228C83.1638 28.8087 83.9345 28.599 84.7958 28.599C85.4871 28.599 86.1048 28.718 86.6488 28.956C87.1928 29.194 87.6518 29.5227 88.0258 29.942C88.3998 30.35 88.6831 30.8203 88.8758 31.353C89.0798 31.8857 89.1818 32.4523 89.1818 33.053C89.1818 33.2003 89.1761 33.3533 89.1648 33.512C89.1535 33.6707 89.1308 33.818 89.0968 33.954H81.7698V32.424H88.0088L87.0908 33.121C87.2041 32.5657 87.1645 32.0727 86.9718 31.642C86.7905 31.2 86.5071 30.8543 86.1218 30.605C85.7478 30.3443 85.3058 30.214 84.7958 30.214C84.2858 30.214 83.8325 30.3443 83.4358 30.605C83.0391 30.8543 82.7331 31.217 82.5178 31.693C82.3025 32.1577 82.2175 32.7243 82.2628 33.393C82.2061 34.0163 82.2911 34.5603 82.5178 35.025C82.7558 35.4897 83.0845 35.8523 83.5038 36.113C83.9345 36.3737 84.4218 36.504 84.9658 36.504C85.5211 36.504 85.9915 36.3793 86.3768 36.13C86.7735 35.8807 87.0851 35.5577 87.3118 35.161L88.8758 35.926C88.6945 36.3567 88.4111 36.7477 88.0258 37.099C87.6518 37.439 87.1985 37.711 86.6658 37.915C86.1445 38.1077 85.5721 38.204 84.9488 38.204ZM94.8443 41.74C94.6176 41.74 94.3909 41.7173 94.1643 41.672C93.9489 41.638 93.7506 41.5813 93.5693 41.502V39.853C93.7053 39.887 93.8696 39.9153 94.0623 39.938C94.2549 39.972 94.4419 39.989 94.6233 39.989C95.1559 39.989 95.5469 39.87 95.7963 39.632C96.0569 39.4053 96.2893 39.054 96.4933 38.578L97.1053 37.184L97.0713 38.799L93.0933 28.803H95.1502L98.0913 36.47H97.3942L100.318 28.803H102.392L98.3293 39.003C98.1139 39.547 97.8419 40.023 97.5133 40.431C97.1959 40.8503 96.8163 41.1733 96.3743 41.4C95.9436 41.6267 95.4336 41.74 94.8443 41.74ZM107.978 38.204C107.094 38.204 106.284 37.9943 105.547 37.575C104.822 37.1557 104.244 36.5833 103.813 35.858C103.382 35.1327 103.167 34.311 103.167 33.393C103.167 32.4637 103.382 31.642 103.813 30.928C104.244 30.2027 104.822 29.636 105.547 29.228C106.272 28.8087 107.083 28.599 107.978 28.599C108.885 28.599 109.695 28.8087 110.409 29.228C111.134 29.636 111.707 30.2027 112.126 30.928C112.557 31.642 112.772 32.4637 112.772 33.393C112.772 34.3223 112.557 35.1497 112.126 35.875C111.695 36.6003 111.117 37.1727 110.392 37.592C109.667 38 108.862 38.204 107.978 38.204ZM107.978 36.419C108.522 36.419 109.004 36.2887 109.423 36.028C109.842 35.7673 110.171 35.4103 110.409 34.957C110.658 34.4923 110.783 33.971 110.783 33.393C110.783 32.815 110.658 32.2993 110.409 31.846C110.171 31.3927 109.842 31.0357 109.423 30.775C109.004 30.5143 108.522 30.384 107.978 30.384C107.445 30.384 106.964 30.5143 106.533 30.775C106.114 31.0357 105.779 31.3927 105.53 31.846C105.292 32.2993 105.173 32.815 105.173 33.393C105.173 33.971 105.292 34.4923 105.53 34.957C105.779 35.4103 106.114 35.7673 106.533 36.028C106.964 36.2887 107.445 36.419 107.978 36.419ZM117.928 38.204C117.237 38.204 116.631 38.051 116.109 37.745C115.588 37.4277 115.18 36.9913 114.885 36.436C114.602 35.8693 114.46 35.2177 114.46 34.481V28.803H116.381V34.311C116.381 34.7303 116.466 35.0987 116.636 35.416C116.806 35.7333 117.044 35.9827 117.35 36.164C117.656 36.334 118.008 36.419 118.404 36.419C118.812 36.419 119.169 36.3283 119.475 36.147C119.781 35.9657 120.019 35.7107 120.189 35.382C120.371 35.0533 120.461 34.668 120.461 34.226V28.803H122.365V38H120.546V36.198L120.75 36.436C120.535 37.0027 120.178 37.439 119.679 37.745C119.181 38.051 118.597 38.204 117.928 38.204ZM124.608 38V28.803H126.444V30.656L126.274 30.384C126.478 29.7833 126.807 29.3527 127.26 29.092C127.714 28.82 128.258 28.684 128.892 28.684H129.453V30.435H128.654C128.02 30.435 127.504 30.6333 127.107 31.03C126.722 31.4153 126.529 31.9707 126.529 32.696V38H124.608ZM138.057 38.204C137.139 38.204 136.323 37.9943 135.609 37.575C134.907 37.1443 134.357 36.5663 133.96 35.841C133.564 35.1043 133.365 34.2827 133.365 33.376C133.365 32.4467 133.564 31.625 133.96 30.911C134.368 30.197 134.912 29.636 135.592 29.228C136.272 28.8087 137.043 28.599 137.904 28.599C138.596 28.599 139.213 28.718 139.757 28.956C140.301 29.194 140.76 29.5227 141.134 29.942C141.508 30.35 141.792 30.8203 141.984 31.353C142.188 31.8857 142.29 32.4523 142.29 33.053C142.29 33.2003 142.285 33.3533 142.273 33.512C142.262 33.6707 142.239 33.818 142.205 33.954H134.878V32.424H141.117L140.199 33.121C140.313 32.5657 140.273 32.0727 140.08 31.642C139.899 31.2 139.616 30.8543 139.23 30.605C138.856 30.3443 138.414 30.214 137.904 30.214C137.394 30.214 136.941 30.3443 136.544 30.605C136.148 30.8543 135.842 31.217 135.626 31.693C135.411 32.1577 135.326 32.7243 135.371 33.393C135.315 34.0163 135.4 34.5603 135.626 35.025C135.864 35.4897 136.193 35.8523 136.612 36.113C137.043 36.3737 137.53 36.504 138.074 36.504C138.63 36.504 139.1 36.3793 139.485 36.13C139.882 35.8807 140.194 35.5577 140.42 35.161L141.984 35.926C141.803 36.3567 141.52 36.7477 141.134 37.099C140.76 37.439 140.307 37.711 139.774 37.915C139.253 38.1077 138.681 38.204 138.057 38.204ZM143.081 38L146.294 33.393L143.081 28.803H145.342L147.977 32.645H146.889L149.524 28.803H151.785L148.555 33.393L151.768 38H149.507L146.906 34.141H147.96L145.342 38H143.081ZM153.097 41.4V28.803H154.933V30.707L154.712 30.265C155.052 29.7437 155.505 29.3357 156.072 29.041C156.638 28.7463 157.284 28.599 158.01 28.599C158.882 28.599 159.664 28.8087 160.356 29.228C161.058 29.6473 161.608 30.2197 162.005 30.945C162.413 31.6703 162.617 32.4863 162.617 33.393C162.617 34.2997 162.413 35.1157 162.005 35.841C161.608 36.5663 161.064 37.1443 160.373 37.575C159.681 37.9943 158.894 38.204 158.01 38.204C157.296 38.204 156.644 38.0567 156.055 37.762C155.477 37.4673 155.029 37.0423 154.712 36.487L155.018 36.13V41.4H153.097ZM157.823 36.419C158.367 36.419 158.848 36.2887 159.268 36.028C159.687 35.7673 160.016 35.4103 160.254 34.957C160.503 34.4923 160.628 33.971 160.628 33.393C160.628 32.815 160.503 32.2993 160.254 31.846C160.016 31.3927 159.687 31.0357 159.268 30.775C158.848 30.5143 158.367 30.384 157.823 30.384C157.29 30.384 156.808 30.5143 156.378 30.775C155.958 31.0357 155.624 31.3927 155.375 31.846C155.137 32.2993 155.018 32.815 155.018 33.393C155.018 33.971 155.137 34.4923 155.375 34.957C155.624 35.4103 155.958 35.7673 156.378 36.028C156.808 36.2887 157.29 36.419 157.823 36.419ZM168.803 38.204C167.885 38.204 167.069 37.9943 166.355 37.575C165.653 37.1443 165.103 36.5663 164.706 35.841C164.31 35.1043 164.111 34.2827 164.111 33.376C164.111 32.4467 164.31 31.625 164.706 30.911C165.114 30.197 165.658 29.636 166.338 29.228C167.018 28.8087 167.789 28.599 168.65 28.599C169.342 28.599 169.959 28.718 170.503 28.956C171.047 29.194 171.506 29.5227 171.88 29.942C172.254 30.35 172.538 30.8203 172.73 31.353C172.934 31.8857 173.036 32.4523 173.036 33.053C173.036 33.2003 173.031 33.3533 173.019 33.512C173.008 33.6707 172.985 33.818 172.951 33.954H165.624V32.424H171.863L170.945 33.121C171.059 32.5657 171.019 32.0727 170.826 31.642C170.645 31.2 170.362 30.8543 169.976 30.605C169.602 30.3443 169.16 30.214 168.65 30.214C168.14 30.214 167.687 30.3443 167.29 30.605C166.894 30.8543 166.588 31.217 166.372 31.693C166.157 32.1577 166.072 32.7243 166.117 33.393C166.061 34.0163 166.146 34.5603 166.372 35.025C166.61 35.4897 166.939 35.8523 167.358 36.113C167.789 36.3737 168.276 36.504 168.82 36.504C169.376 36.504 169.846 36.3793 170.231 36.13C170.628 35.8807 170.94 35.5577 171.166 35.161L172.73 35.926C172.549 36.3567 172.266 36.7477 171.88 37.099C171.506 37.439 171.053 37.711 170.52 37.915C169.999 38.1077 169.427 38.204 168.803 38.204ZM174.911 38V28.803H176.747V30.656L176.577 30.384C176.781 29.7833 177.11 29.3527 177.563 29.092C178.016 28.82 178.56 28.684 179.195 28.684H179.756V30.435H178.957C178.322 30.435 177.807 30.6333 177.41 31.03C177.025 31.4153 176.832 31.9707 176.832 32.696V38H174.911ZM181.07 38V28.803H182.991V38H181.07ZM181.07 27.545V25.335H182.991V27.545H181.07ZM189.555 38.204C188.637 38.204 187.821 37.9943 187.107 37.575C186.405 37.1443 185.855 36.5663 185.458 35.841C185.062 35.1043 184.863 34.2827 184.863 33.376C184.863 32.4467 185.062 31.625 185.458 30.911C185.866 30.197 186.41 29.636 187.09 29.228C187.77 28.8087 188.541 28.599 189.402 28.599C190.094 28.599 190.711 28.718 191.255 28.956C191.799 29.194 192.258 29.5227 192.632 29.942C193.006 30.35 193.29 30.8203 193.482 31.353C193.686 31.8857 193.788 32.4523 193.788 33.053C193.788 33.2003 193.783 33.3533 193.771 33.512C193.76 33.6707 193.737 33.818 193.703 33.954H186.376V32.424H192.615L191.697 33.121C191.811 32.5657 191.771 32.0727 191.578 31.642C191.397 31.2 191.114 30.8543 190.728 30.605C190.354 30.3443 189.912 30.214 189.402 30.214C188.892 30.214 188.439 30.3443 188.042 30.605C187.646 30.8543 187.34 31.217 187.124 31.693C186.909 32.1577 186.824 32.7243 186.869 33.393C186.813 34.0163 186.898 34.5603 187.124 35.025C187.362 35.4897 187.691 35.8523 188.11 36.113C188.541 36.3737 189.028 36.504 189.572 36.504C190.128 36.504 190.598 36.3793 190.983 36.13C191.38 35.8807 191.692 35.5577 191.918 35.161L193.482 35.926C193.301 36.3567 193.018 36.7477 192.632 37.099C192.258 37.439 191.805 37.711 191.272 37.915C190.751 38.1077 190.179 38.204 189.555 38.204ZM195.663 38V28.803H197.499V30.605L197.278 30.367C197.505 29.789 197.867 29.3527 198.366 29.058C198.865 28.752 199.443 28.599 200.1 28.599C200.78 28.599 201.381 28.7463 201.902 29.041C202.423 29.3357 202.831 29.7437 203.126 30.265C203.421 30.7863 203.568 31.387 203.568 32.067V38H201.664V32.577C201.664 32.1123 201.579 31.7213 201.409 31.404C201.239 31.0753 200.995 30.826 200.678 30.656C200.372 30.4747 200.021 30.384 199.624 30.384C199.227 30.384 198.87 30.4747 198.553 30.656C198.247 30.826 198.009 31.0753 197.839 31.404C197.669 31.7327 197.584 32.1237 197.584 32.577V38H195.663ZM209.993 38.204C209.075 38.204 208.259 37.9943 207.545 37.575C206.842 37.1443 206.281 36.5663 205.862 35.841C205.454 35.1157 205.25 34.294 205.25 33.376C205.25 32.4693 205.454 31.6533 205.862 30.928C206.27 30.2027 206.831 29.636 207.545 29.228C208.259 28.8087 209.075 28.599 209.993 28.599C210.616 28.599 211.2 28.7123 211.744 28.939C212.288 29.1543 212.758 29.4547 213.155 29.84C213.563 30.2253 213.863 30.673 214.056 31.183L212.373 31.965C212.18 31.489 211.869 31.1093 211.438 30.826C211.019 30.5313 210.537 30.384 209.993 30.384C209.472 30.384 209.001 30.5143 208.582 30.775C208.174 31.0243 207.851 31.3813 207.613 31.846C207.375 32.2993 207.256 32.815 207.256 33.393C207.256 33.971 207.375 34.4923 207.613 34.957C207.851 35.4103 208.174 35.7673 208.582 36.028C209.001 36.2887 209.472 36.419 209.993 36.419C210.548 36.419 211.03 36.2773 211.438 35.994C211.857 35.6993 212.169 35.3083 212.373 34.821L214.056 35.62C213.875 36.1073 213.58 36.5493 213.172 36.946C212.775 37.3313 212.305 37.6373 211.761 37.864C211.217 38.0907 210.628 38.204 209.993 38.204ZM220.252 38.204C219.334 38.204 218.518 37.9943 217.804 37.575C217.101 37.1443 216.551 36.5663 216.155 35.841C215.758 35.1043 215.56 34.2827 215.56 33.376C215.56 32.4467 215.758 31.625 216.155 30.911C216.563 30.197 217.107 29.636 217.787 29.228C218.467 28.8087 219.237 28.599 220.099 28.599C220.79 28.599 221.408 28.718 221.952 28.956C222.496 29.194 222.955 29.5227 223.329 29.942C223.703 30.35 223.986 30.8203 224.179 31.353C224.383 31.8857 224.485 32.4523 224.485 33.053C224.485 33.2003 224.479 33.3533 224.468 33.512C224.456 33.6707 224.434 33.818 224.4 33.954H217.073V32.424H223.312L222.394 33.121C222.507 32.5657 222.467 32.0727 222.275 31.642C222.093 31.2 221.81 30.8543 221.425 30.605C221.051 30.3443 220.609 30.214 220.099 30.214C219.589 30.214 219.135 30.3443 218.739 30.605C218.342 30.8543 218.036 31.217 217.821 31.693C217.605 32.1577 217.52 32.7243 217.566 33.393C217.509 34.0163 217.594 34.5603 217.821 35.025C218.059 35.4897 218.387 35.8523 218.807 36.113C219.237 36.3737 219.725 36.504 220.269 36.504C220.824 36.504 221.294 36.3793 221.68 36.13C222.076 35.8807 222.388 35.5577 222.615 35.161L224.179 35.926C223.997 36.3567 223.714 36.7477 223.329 37.099C222.955 37.439 222.501 37.711 221.969 37.915C221.447 38.1077 220.875 38.204 220.252 38.204Z" fill="#0F1217"/>
<path d="M53.001 58V48.315H54.535V52.579H59.02V48.315H60.541V58H59.02V53.944H54.535V58H53.001ZM65.7069 58.156C65.0049 58.156 64.3809 57.9957 63.8349 57.675C63.2975 57.3457 62.8772 56.9037 62.5739 56.349C62.2705 55.7857 62.1189 55.1573 62.1189 54.464C62.1189 53.7533 62.2705 53.125 62.5739 52.579C62.8859 52.033 63.3019 51.604 63.8219 51.292C64.3419 50.9713 64.9312 50.811 65.5899 50.811C66.1185 50.811 66.5909 50.902 67.0069 51.084C67.4229 51.266 67.7739 51.5173 68.0599 51.838C68.3459 52.15 68.5625 52.5097 68.7099 52.917C68.8659 53.3243 68.9439 53.7577 68.9439 54.217C68.9439 54.3297 68.9395 54.4467 68.9309 54.568C68.9222 54.6893 68.9049 54.802 68.8789 54.906H63.2759V53.736H68.0469L67.3449 54.269C67.4315 53.8443 67.4012 53.4673 67.2539 53.138C67.1152 52.8 66.8985 52.5357 66.6039 52.345C66.3179 52.1457 65.9799 52.046 65.5899 52.046C65.1999 52.046 64.8532 52.1457 64.5499 52.345C64.2465 52.5357 64.0125 52.813 63.8479 53.177C63.6832 53.5323 63.6182 53.9657 63.6529 54.477C63.6095 54.9537 63.6745 55.3697 63.8479 55.725C64.0299 56.0803 64.2812 56.3577 64.6019 56.557C64.9312 56.7563 65.3039 56.856 65.7199 56.856C66.1445 56.856 66.5042 56.7607 66.7989 56.57C67.1022 56.3793 67.3405 56.1323 67.5139 55.829L68.7099 56.414C68.5712 56.7433 68.3545 57.0423 68.0599 57.311C67.7739 57.571 67.4272 57.779 67.0199 57.935C66.6212 58.0823 66.1835 58.156 65.7069 58.156ZM70.3775 58V48.159H71.8465V58H70.3775ZM73.5641 60.6V50.967H74.9681V52.423L74.7991 52.085C75.0591 51.6863 75.4057 51.3743 75.8391 51.149C76.2724 50.9237 76.7664 50.811 77.3211 50.811C77.9884 50.811 78.5864 50.9713 79.1151 51.292C79.6524 51.6127 80.0727 52.0503 80.3761 52.605C80.6881 53.1597 80.8441 53.7837 80.8441 54.477C80.8441 55.1703 80.6881 55.7943 80.3761 56.349C80.0727 56.9037 79.6567 57.3457 79.1281 57.675C78.5994 57.9957 77.9971 58.156 77.3211 58.156C76.7751 58.156 76.2767 58.0433 75.8261 57.818C75.3841 57.5927 75.0417 57.2677 74.7991 56.843L75.0331 56.57V60.6H73.5641ZM77.1781 56.791C77.5941 56.791 77.9624 56.6913 78.2831 56.492C78.6037 56.2927 78.8551 56.0197 79.0371 55.673C79.2277 55.3177 79.3231 54.919 79.3231 54.477C79.3231 54.035 79.2277 53.6407 79.0371 53.294C78.8551 52.9473 78.6037 52.6743 78.2831 52.475C77.9624 52.2757 77.5941 52.176 77.1781 52.176C76.7707 52.176 76.4024 52.2757 76.0731 52.475C75.7524 52.6743 75.4967 52.9473 75.3061 53.294C75.1241 53.6407 75.0331 54.035 75.0331 54.477C75.0331 54.919 75.1241 55.3177 75.3061 55.673C75.4967 56.0197 75.7524 56.2927 76.0731 56.492C76.4024 56.6913 76.7707 56.791 77.1781 56.791ZM87.0545 58.156C86.5258 58.156 86.0622 58.039 85.6635 57.805C85.2648 57.5623 84.9528 57.2287 84.7275 56.804C84.5108 56.3707 84.4025 55.8723 84.4025 55.309V50.967H85.8715V55.179C85.8715 55.4997 85.9365 55.7813 86.0665 56.024C86.1965 56.2667 86.3785 56.4573 86.6125 56.596C86.8465 56.726 87.1152 56.791 87.4185 56.791C87.7305 56.791 88.0035 56.7217 88.2375 56.583C88.4715 56.4443 88.6535 56.2493 88.7835 55.998C88.9222 55.7467 88.9915 55.452 88.9915 55.114V50.967H90.4475V58H89.0565V56.622L89.2125 56.804C89.0478 57.2373 88.7748 57.571 88.3935 57.805C88.0122 58.039 87.5658 58.156 87.0545 58.156ZM94.7627 58.156C94.0434 58.156 93.4107 57.9783 92.8647 57.623C92.3274 57.2677 91.9504 56.791 91.7337 56.193L92.8647 55.66C93.0554 56.0587 93.3154 56.375 93.6447 56.609C93.9827 56.843 94.3554 56.96 94.7627 56.96C95.1094 56.96 95.391 56.882 95.6077 56.726C95.8244 56.57 95.9327 56.3577 95.9327 56.089C95.9327 55.9157 95.885 55.777 95.7897 55.673C95.6944 55.5603 95.573 55.4693 95.4257 55.4C95.287 55.3307 95.144 55.2787 94.9967 55.244L93.8917 54.932C93.285 54.7587 92.83 54.4987 92.5267 54.152C92.232 53.7967 92.0847 53.385 92.0847 52.917C92.0847 52.4923 92.193 52.124 92.4097 51.812C92.6264 51.4913 92.9254 51.2443 93.3067 51.071C93.688 50.8977 94.117 50.811 94.5937 50.811C95.235 50.811 95.807 50.9713 96.3097 51.292C96.8124 51.604 97.1677 52.0417 97.3757 52.605L96.2447 53.138C96.106 52.8 95.885 52.5313 95.5817 52.332C95.287 52.1327 94.9534 52.033 94.5807 52.033C94.26 52.033 94.0044 52.111 93.8137 52.267C93.623 52.4143 93.5277 52.6093 93.5277 52.852C93.5277 53.0167 93.571 53.1553 93.6577 53.268C93.7444 53.372 93.857 53.4587 93.9957 53.528C94.1344 53.5887 94.2774 53.6407 94.4247 53.684L95.5687 54.022C96.1494 54.1867 96.5957 54.4467 96.9077 54.802C97.2197 55.1487 97.3757 55.5647 97.3757 56.05C97.3757 56.466 97.263 56.8343 97.0377 57.155C96.821 57.467 96.5177 57.714 96.1277 57.896C95.7377 58.0693 95.2827 58.156 94.7627 58.156ZM104.48 60.86C103.969 60.86 103.497 60.7777 103.063 60.613C102.63 60.4483 102.257 60.2187 101.945 59.924C101.633 59.638 101.399 59.3 101.243 58.91L102.595 58.351C102.717 58.6803 102.938 58.9533 103.258 59.17C103.588 59.3867 103.991 59.495 104.467 59.495C104.84 59.495 105.174 59.4213 105.468 59.274C105.763 59.1353 105.997 58.9273 106.17 58.65C106.344 58.3813 106.43 58.0563 106.43 57.675V56.089L106.69 56.388C106.448 56.8387 106.11 57.181 105.676 57.415C105.252 57.649 104.771 57.766 104.233 57.766C103.583 57.766 102.998 57.6143 102.478 57.311C101.958 57.0077 101.547 56.5917 101.243 56.063C100.949 55.5343 100.801 54.9407 100.801 54.282C100.801 53.6147 100.949 53.021 101.243 52.501C101.547 51.981 101.954 51.5693 102.465 51.266C102.977 50.9627 103.562 50.811 104.22 50.811C104.758 50.811 105.234 50.928 105.65 51.162C106.075 51.3873 106.422 51.7167 106.69 52.15L106.495 52.514V50.967H107.886V57.675C107.886 58.2817 107.739 58.8233 107.444 59.3C107.158 59.7853 106.76 60.1667 106.248 60.444C105.737 60.7213 105.148 60.86 104.48 60.86ZM104.402 56.401C104.792 56.401 105.139 56.31 105.442 56.128C105.746 55.9373 105.984 55.686 106.157 55.374C106.339 55.0533 106.43 54.6937 106.43 54.295C106.43 53.8963 106.339 53.5367 106.157 53.216C105.975 52.8953 105.733 52.644 105.429 52.462C105.126 52.2713 104.784 52.176 104.402 52.176C104.004 52.176 103.648 52.2713 103.336 52.462C103.024 52.644 102.777 52.8953 102.595 53.216C102.422 53.528 102.335 53.8877 102.335 54.295C102.335 54.685 102.422 55.0403 102.595 55.361C102.777 55.6817 103.024 55.9373 103.336 56.128C103.648 56.31 104.004 56.401 104.402 56.401ZM112.908 58.156C112.206 58.156 111.582 57.9957 111.036 57.675C110.499 57.3457 110.078 56.9037 109.775 56.349C109.472 55.7857 109.32 55.1573 109.32 54.464C109.32 53.7533 109.472 53.125 109.775 52.579C110.087 52.033 110.503 51.604 111.023 51.292C111.543 50.9713 112.132 50.811 112.791 50.811C113.32 50.811 113.792 50.902 114.208 51.084C114.624 51.266 114.975 51.5173 115.261 51.838C115.547 52.15 115.764 52.5097 115.911 52.917C116.067 53.3243 116.145 53.7577 116.145 54.217C116.145 54.3297 116.141 54.4467 116.132 54.568C116.123 54.6893 116.106 54.802 116.08 54.906H110.477V53.736H115.248L114.546 54.269C114.633 53.8443 114.602 53.4673 114.455 53.138C114.316 52.8 114.1 52.5357 113.805 52.345C113.519 52.1457 113.181 52.046 112.791 52.046C112.401 52.046 112.054 52.1457 111.751 52.345C111.448 52.5357 111.214 52.813 111.049 53.177C110.884 53.5323 110.819 53.9657 110.854 54.477C110.811 54.9537 110.876 55.3697 111.049 55.725C111.231 56.0803 111.482 56.3577 111.803 56.557C112.132 56.7563 112.505 56.856 112.921 56.856C113.346 56.856 113.705 56.7607 114 56.57C114.303 56.3793 114.542 56.1323 114.715 55.829L115.911 56.414C115.772 56.7433 115.556 57.0423 115.261 57.311C114.975 57.571 114.628 57.779 114.221 57.935C113.822 58.0823 113.385 58.156 112.908 58.156ZM120.621 58.078C119.884 58.078 119.312 57.87 118.905 57.454C118.497 57.038 118.294 56.453 118.294 55.699V52.293H117.059V50.967H117.254C117.583 50.967 117.839 50.8717 118.021 50.681C118.203 50.4903 118.294 50.2303 118.294 49.901V49.355H119.763V50.967H121.362V52.293H119.763V55.634C119.763 55.8767 119.802 56.0847 119.88 56.258C119.958 56.4227 120.083 56.5527 120.257 56.648C120.43 56.7347 120.655 56.778 120.933 56.778C121.002 56.778 121.08 56.7737 121.167 56.765C121.253 56.7563 121.336 56.7477 121.414 56.739V58C121.292 58.0173 121.158 58.0347 121.011 58.052C120.863 58.0693 120.733 58.078 120.621 58.078ZM128.877 58.156C128.331 58.156 127.832 58.0433 127.382 57.818C126.94 57.5927 126.597 57.2677 126.355 56.843L126.524 56.57V58H125.12V48.159H126.589V52.423L126.355 52.085C126.615 51.6863 126.961 51.3743 127.395 51.149C127.828 50.9237 128.322 50.811 128.877 50.811C129.544 50.811 130.142 50.9713 130.671 51.292C131.208 51.6127 131.628 52.0503 131.932 52.605C132.244 53.1597 132.4 53.7837 132.4 54.477C132.4 55.1703 132.244 55.7943 131.932 56.349C131.628 56.9037 131.212 57.3457 130.684 57.675C130.155 57.9957 129.553 58.156 128.877 58.156ZM128.734 56.791C129.15 56.791 129.518 56.6913 129.839 56.492C130.159 56.2927 130.411 56.0197 130.593 55.673C130.783 55.3177 130.879 54.919 130.879 54.477C130.879 54.035 130.783 53.6407 130.593 53.294C130.411 52.9473 130.159 52.6743 129.839 52.475C129.518 52.2757 129.15 52.176 128.734 52.176C128.326 52.176 127.958 52.2757 127.629 52.475C127.308 52.6743 127.052 52.9473 126.862 53.294C126.68 53.6407 126.589 54.035 126.589 54.477C126.589 54.919 126.68 55.3177 126.862 55.673C127.052 56.0197 127.308 56.2927 127.629 56.492C127.958 56.6913 128.326 56.791 128.734 56.791ZM137.131 58.156C136.429 58.156 135.805 57.9957 135.259 57.675C134.721 57.3457 134.301 56.9037 133.998 56.349C133.694 55.7857 133.543 55.1573 133.543 54.464C133.543 53.7533 133.694 53.125 133.998 52.579C134.31 52.033 134.726 51.604 135.246 51.292C135.766 50.9713 136.355 50.811 137.014 50.811C137.542 50.811 138.015 50.902 138.431 51.084C138.847 51.266 139.198 51.5173 139.484 51.838C139.77 52.15 139.986 52.5097 140.134 52.917C140.29 53.3243 140.368 53.7577 140.368 54.217C140.368 54.3297 140.363 54.4467 140.355 54.568C140.346 54.6893 140.329 54.802 140.303 54.906H134.7V53.736H139.471L138.769 54.269C138.855 53.8443 138.825 53.4673 138.678 53.138C138.539 52.8 138.322 52.5357 138.028 52.345C137.742 52.1457 137.404 52.046 137.014 52.046C136.624 52.046 136.277 52.1457 135.974 52.345C135.67 52.5357 135.436 52.813 135.272 53.177C135.107 53.5323 135.042 53.9657 135.077 54.477C135.033 54.9537 135.098 55.3697 135.272 55.725C135.454 56.0803 135.705 56.3577 136.026 56.557C136.355 56.7563 136.728 56.856 137.144 56.856C137.568 56.856 137.928 56.7607 138.223 56.57C138.526 56.3793 138.764 56.1323 138.938 55.829L140.134 56.414C139.995 56.7433 139.778 57.0423 139.484 57.311C139.198 57.571 138.851 57.779 138.444 57.935C138.045 58.0823 137.607 58.156 137.131 58.156ZM144.843 58.078C144.107 58.078 143.535 57.87 143.127 57.454C142.72 57.038 142.516 56.453 142.516 55.699V52.293H141.281V50.967H141.476C141.806 50.967 142.061 50.8717 142.243 50.681C142.425 50.4903 142.516 50.2303 142.516 49.901V49.355H143.985V50.967H145.584V52.293H143.985V55.634C143.985 55.8767 144.024 56.0847 144.102 56.258C144.18 56.4227 144.306 56.5527 144.479 56.648C144.653 56.7347 144.878 56.778 145.155 56.778C145.225 56.778 145.303 56.7737 145.389 56.765C145.476 56.7563 145.558 56.7477 145.636 56.739V58C145.515 58.0173 145.381 58.0347 145.233 58.052C145.086 58.0693 144.956 58.078 144.843 58.078ZM150.112 58.078C149.375 58.078 148.803 57.87 148.396 57.454C147.989 57.038 147.785 56.453 147.785 55.699V52.293H146.55V50.967H146.745C147.074 50.967 147.33 50.8717 147.512 50.681C147.694 50.4903 147.785 50.2303 147.785 49.901V49.355H149.254V50.967H150.853V52.293H149.254V55.634C149.254 55.8767 149.293 56.0847 149.371 56.258C149.449 56.4227 149.575 56.5527 149.748 56.648C149.921 56.7347 150.147 56.778 150.424 56.778C150.493 56.778 150.571 56.7737 150.658 56.765C150.745 56.7563 150.827 56.7477 150.905 56.739V58C150.784 58.0173 150.649 58.0347 150.502 58.052C150.355 58.0693 150.225 58.078 150.112 58.078ZM155.514 58.156C154.812 58.156 154.188 57.9957 153.642 57.675C153.104 57.3457 152.684 56.9037 152.381 56.349C152.077 55.7857 151.926 55.1573 151.926 54.464C151.926 53.7533 152.077 53.125 152.381 52.579C152.693 52.033 153.109 51.604 153.629 51.292C154.149 50.9713 154.738 50.811 155.397 50.811C155.925 50.811 156.398 50.902 156.814 51.084C157.23 51.266 157.581 51.5173 157.867 51.838C158.153 52.15 158.369 52.5097 158.517 52.917C158.673 53.3243 158.751 53.7577 158.751 54.217C158.751 54.3297 158.746 54.4467 158.738 54.568C158.729 54.6893 158.712 54.802 158.686 54.906H153.083V53.736H157.854L157.152 54.269C157.238 53.8443 157.208 53.4673 157.061 53.138C156.922 52.8 156.705 52.5357 156.411 52.345C156.125 52.1457 155.787 52.046 155.397 52.046C155.007 52.046 154.66 52.1457 154.357 52.345C154.053 52.5357 153.819 52.813 153.655 53.177C153.49 53.5323 153.425 53.9657 153.46 54.477C153.416 54.9537 153.481 55.3697 153.655 55.725C153.837 56.0803 154.088 56.3577 154.409 56.557C154.738 56.7563 155.111 56.856 155.527 56.856C155.951 56.856 156.311 56.7607 156.606 56.57C156.909 56.3793 157.147 56.1323 157.321 55.829L158.517 56.414C158.378 56.7433 158.161 57.0423 157.867 57.311C157.581 57.571 157.234 57.779 156.827 57.935C156.428 58.0823 155.99 58.156 155.514 58.156ZM160.184 58V50.967H161.588V52.384L161.458 52.176C161.614 51.7167 161.866 51.3873 162.212 51.188C162.559 50.98 162.975 50.876 163.46 50.876H163.889V52.215H163.278C162.793 52.215 162.399 52.3667 162.095 52.67C161.801 52.9647 161.653 53.3893 161.653 53.944V58H160.184ZM165.115 55.127V53.827H175.385V55.127H165.115ZM179.923 58.156C179.204 58.156 178.571 57.9783 178.025 57.623C177.488 57.2677 177.111 56.791 176.894 56.193L178.025 55.66C178.216 56.0587 178.476 56.375 178.805 56.609C179.143 56.843 179.516 56.96 179.923 56.96C180.27 56.96 180.551 56.882 180.768 56.726C180.985 56.57 181.093 56.3577 181.093 56.089C181.093 55.9157 181.045 55.777 180.95 55.673C180.855 55.5603 180.733 55.4693 180.586 55.4C180.447 55.3307 180.304 55.2787 180.157 55.244L179.052 54.932C178.445 54.7587 177.99 54.4987 177.687 54.152C177.392 53.7967 177.245 53.385 177.245 52.917C177.245 52.4923 177.353 52.124 177.57 51.812C177.787 51.4913 178.086 51.2443 178.467 51.071C178.848 50.8977 179.277 50.811 179.754 50.811C180.395 50.811 180.967 50.9713 181.47 51.292C181.973 51.604 182.328 52.0417 182.536 52.605L181.405 53.138C181.266 52.8 181.045 52.5313 180.742 52.332C180.447 52.1327 180.114 52.033 179.741 52.033C179.42 52.033 179.165 52.111 178.974 52.267C178.783 52.4143 178.688 52.6093 178.688 52.852C178.688 53.0167 178.731 53.1553 178.818 53.268C178.905 53.372 179.017 53.4587 179.156 53.528C179.295 53.5887 179.438 53.6407 179.585 53.684L180.729 54.022C181.31 54.1867 181.756 54.4467 182.068 54.802C182.38 55.1487 182.536 55.5647 182.536 56.05C182.536 56.466 182.423 56.8343 182.198 57.155C181.981 57.467 181.678 57.714 181.288 57.896C180.898 58.0693 180.443 58.156 179.923 58.156ZM183.975 58V48.159H185.444V52.345L185.21 52.163C185.384 51.721 185.661 51.3873 186.042 51.162C186.424 50.928 186.866 50.811 187.368 50.811C187.888 50.811 188.348 50.9237 188.746 51.149C189.145 51.3743 189.457 51.6863 189.682 52.085C189.908 52.4837 190.02 52.9387 190.02 53.45V58H188.564V53.853C188.564 53.4977 188.495 53.1987 188.356 52.956C188.226 52.7047 188.044 52.514 187.81 52.384C187.576 52.2453 187.308 52.176 187.004 52.176C186.71 52.176 186.441 52.2453 186.198 52.384C185.964 52.514 185.778 52.7047 185.639 52.956C185.509 53.2073 185.444 53.5063 185.444 53.853V58H183.975ZM193.698 58.156C193.222 58.156 192.801 58.0737 192.437 57.909C192.082 57.7357 191.805 57.5017 191.605 57.207C191.406 56.9037 191.306 56.5483 191.306 56.141C191.306 55.7597 191.389 55.4173 191.553 55.114C191.727 54.8107 191.991 54.555 192.346 54.347C192.702 54.139 193.148 53.9917 193.685 53.905L196.129 53.502V54.659L193.971 55.036C193.581 55.1053 193.295 55.231 193.113 55.413C192.931 55.5863 192.84 55.8117 192.84 56.089C192.84 56.3577 192.94 56.5787 193.139 56.752C193.347 56.9167 193.612 56.999 193.932 56.999C194.331 56.999 194.678 56.9123 194.972 56.739C195.276 56.5657 195.51 56.336 195.674 56.05C195.839 55.7553 195.921 55.4303 195.921 55.075V53.268C195.921 52.9213 195.791 52.6397 195.531 52.423C195.28 52.1977 194.942 52.085 194.517 52.085C194.127 52.085 193.785 52.189 193.49 52.397C193.204 52.5963 192.992 52.8563 192.853 53.177L191.631 52.566C191.761 52.2193 191.974 51.916 192.268 51.656C192.563 51.3873 192.905 51.1793 193.295 51.032C193.694 50.8847 194.114 50.811 194.556 50.811C195.111 50.811 195.601 50.915 196.025 51.123C196.459 51.331 196.792 51.6213 197.026 51.994C197.269 52.358 197.39 52.7827 197.39 53.268V58H195.986V56.726L196.285 56.765C196.121 57.051 195.908 57.298 195.648 57.506C195.397 57.714 195.107 57.8743 194.777 57.987C194.457 58.0997 194.097 58.156 193.698 58.156ZM199.108 58V50.967H200.512V52.384L200.382 52.176C200.538 51.7167 200.789 51.3873 201.136 51.188C201.483 50.98 201.899 50.876 202.384 50.876H202.813V52.215H202.202C201.717 52.215 201.322 52.3667 201.019 52.67C200.724 52.9647 200.577 53.3893 200.577 53.944V58H199.108ZM207.12 58.156C206.418 58.156 205.794 57.9957 205.248 57.675C204.711 57.3457 204.29 56.9037 203.987 56.349C203.684 55.7857 203.532 55.1573 203.532 54.464C203.532 53.7533 203.684 53.125 203.987 52.579C204.299 52.033 204.715 51.604 205.235 51.292C205.755 50.9713 206.344 50.811 207.003 50.811C207.532 50.811 208.004 50.902 208.42 51.084C208.836 51.266 209.187 51.5173 209.473 51.838C209.759 52.15 209.976 52.5097 210.123 52.917C210.279 53.3243 210.357 53.7577 210.357 54.217C210.357 54.3297 210.353 54.4467 210.344 54.568C210.335 54.6893 210.318 54.802 210.292 54.906H204.689V53.736H209.46L208.758 54.269C208.845 53.8443 208.814 53.4673 208.667 53.138C208.528 52.8 208.312 52.5357 208.017 52.345C207.731 52.1457 207.393 52.046 207.003 52.046C206.613 52.046 206.266 52.1457 205.963 52.345C205.66 52.5357 205.426 52.813 205.261 53.177C205.096 53.5323 205.031 53.9657 205.066 54.477C205.023 54.9537 205.088 55.3697 205.261 55.725C205.443 56.0803 205.694 56.3577 206.015 56.557C206.344 56.7563 206.717 56.856 207.133 56.856C207.558 56.856 207.917 56.7607 208.212 56.57C208.515 56.3793 208.754 56.1323 208.927 55.829L210.123 56.414C209.984 56.7433 209.768 57.0423 209.473 57.311C209.187 57.571 208.84 57.779 208.433 57.935C208.034 58.0823 207.597 58.156 207.12 58.156ZM214.687 60.86C214.514 60.86 214.34 60.8427 214.167 60.808C214.002 60.782 213.851 60.7387 213.712 60.678V59.417C213.816 59.443 213.942 59.4647 214.089 59.482C214.236 59.508 214.379 59.521 214.518 59.521C214.925 59.521 215.224 59.43 215.415 59.248C215.614 59.0747 215.792 58.806 215.948 58.442L216.416 57.376L216.39 58.611L213.348 50.967H214.921L217.17 56.83H216.637L218.873 50.967H220.459L217.352 58.767C217.187 59.183 216.979 59.547 216.728 59.859C216.485 60.1797 216.195 60.4267 215.857 60.6C215.528 60.7733 215.138 60.86 214.687 60.86ZM224.73 58.156C224.054 58.156 223.435 57.9957 222.871 57.675C222.317 57.3543 221.875 56.9167 221.545 56.362C221.216 55.8073 221.051 55.179 221.051 54.477C221.051 53.7663 221.216 53.138 221.545 52.592C221.875 52.0373 222.317 51.604 222.871 51.292C223.426 50.9713 224.046 50.811 224.73 50.811C225.424 50.811 226.043 50.9713 226.589 51.292C227.144 51.604 227.582 52.0373 227.902 52.592C228.232 53.138 228.396 53.7663 228.396 54.477C228.396 55.1877 228.232 55.8203 227.902 56.375C227.573 56.9297 227.131 57.3673 226.576 57.688C226.022 58 225.406 58.156 224.73 58.156ZM224.73 56.791C225.146 56.791 225.515 56.6913 225.835 56.492C226.156 56.2927 226.407 56.0197 226.589 55.673C226.78 55.3177 226.875 54.919 226.875 54.477C226.875 54.035 226.78 53.6407 226.589 53.294C226.407 52.9473 226.156 52.6743 225.835 52.475C225.515 52.2757 225.146 52.176 224.73 52.176C224.323 52.176 223.955 52.2757 223.625 52.475C223.305 52.6743 223.049 52.9473 222.858 53.294C222.676 53.6407 222.585 54.035 222.585 54.477C222.585 54.919 222.676 55.3177 222.858 55.673C223.049 56.0197 223.305 56.2927 223.625 56.492C223.955 56.6913 224.323 56.791 224.73 56.791ZM232.34 58.156C231.811 58.156 231.347 58.039 230.949 57.805C230.55 57.5623 230.238 57.2287 230.013 56.804C229.796 56.3707 229.688 55.8723 229.688 55.309V50.967H231.157V55.179C231.157 55.4997 231.222 55.7813 231.352 56.024C231.482 56.2667 231.664 56.4573 231.898 56.596C232.132 56.726 232.4 56.791 232.704 56.791C233.016 56.791 233.289 56.7217 233.523 56.583C233.757 56.4443 233.939 56.2493 234.069 55.998C234.207 55.7467 234.277 55.452 234.277 55.114V50.967H235.733V58H234.342V56.622L234.498 56.804C234.333 57.2373 234.06 57.571 233.679 57.805C233.297 58.039 232.851 58.156 232.34 58.156ZM237.448 58V50.967H238.852V52.384L238.722 52.176C238.878 51.7167 239.129 51.3873 239.476 51.188C239.823 50.98 240.239 50.876 240.724 50.876H241.153V52.215H240.542C240.057 52.215 239.662 52.3667 239.359 52.67C239.064 52.9647 238.917 53.3893 238.917 53.944V58H237.448ZM247.472 58.078C246.736 58.078 246.164 57.87 245.756 57.454C245.349 57.038 245.145 56.453 245.145 55.699V52.293H243.91V50.967H244.105C244.435 50.967 244.69 50.8717 244.872 50.681C245.054 50.4903 245.145 50.2303 245.145 49.901V49.355H246.614V50.967H248.213V52.293H246.614V55.634C246.614 55.8767 246.653 56.0847 246.731 56.258C246.809 56.4227 246.935 56.5527 247.108 56.648C247.282 56.7347 247.507 56.778 247.784 56.778C247.854 56.778 247.932 56.7737 248.018 56.765C248.105 56.7563 248.187 56.7477 248.265 56.739V58C248.144 58.0173 248.01 58.0347 247.862 58.052C247.715 58.0693 247.585 58.078 247.472 58.078ZM249.699 58V48.159H251.168V52.345L250.934 52.163C251.107 51.721 251.384 51.3873 251.766 51.162C252.147 50.928 252.589 50.811 253.092 50.811C253.612 50.811 254.071 50.9237 254.47 51.149C254.868 51.3743 255.18 51.6863 255.406 52.085C255.631 52.4837 255.744 52.9387 255.744 53.45V58H254.288V53.853C254.288 53.4977 254.218 53.1987 254.08 52.956C253.95 52.7047 253.768 52.514 253.534 52.384C253.3 52.2453 253.031 52.176 252.728 52.176C252.433 52.176 252.164 52.2453 251.922 52.384C251.688 52.514 251.501 52.7047 251.363 52.956C251.233 53.2073 251.168 53.5063 251.168 53.853V58H249.699ZM260.709 58.156C260.033 58.156 259.413 57.9957 258.85 57.675C258.295 57.3543 257.853 56.9167 257.524 56.362C257.195 55.8073 257.03 55.179 257.03 54.477C257.03 53.7663 257.195 53.138 257.524 52.592C257.853 52.0373 258.295 51.604 258.85 51.292C259.405 50.9713 260.024 50.811 260.709 50.811C261.402 50.811 262.022 50.9713 262.568 51.292C263.123 51.604 263.56 52.0373 263.881 52.592C264.21 53.138 264.375 53.7663 264.375 54.477C264.375 55.1877 264.21 55.8203 263.881 56.375C263.552 56.9297 263.11 57.3673 262.555 57.688C262 58 261.385 58.156 260.709 58.156ZM260.709 56.791C261.125 56.791 261.493 56.6913 261.814 56.492C262.135 56.2927 262.386 56.0197 262.568 55.673C262.759 55.3177 262.854 54.919 262.854 54.477C262.854 54.035 262.759 53.6407 262.568 53.294C262.386 52.9473 262.135 52.6743 261.814 52.475C261.493 52.2757 261.125 52.176 260.709 52.176C260.302 52.176 259.933 52.2757 259.604 52.475C259.283 52.6743 259.028 52.9473 258.837 53.294C258.655 53.6407 258.564 54.035 258.564 54.477C258.564 54.919 258.655 55.3177 258.837 55.673C259.028 56.0197 259.283 56.2927 259.604 56.492C259.933 56.6913 260.302 56.791 260.709 56.791ZM268.318 58.156C267.79 58.156 267.326 58.039 266.927 57.805C266.529 57.5623 266.217 57.2287 265.991 56.804C265.775 56.3707 265.666 55.8723 265.666 55.309V50.967H267.135V55.179C267.135 55.4997 267.2 55.7813 267.33 56.024C267.46 56.2667 267.642 56.4573 267.876 56.596C268.11 56.726 268.379 56.791 268.682 56.791C268.994 56.791 269.267 56.7217 269.501 56.583C269.735 56.4443 269.917 56.2493 270.047 55.998C270.186 55.7467 270.255 55.452 270.255 55.114V50.967H271.711V58H270.32V56.622L270.476 56.804C270.312 57.2373 270.039 57.571 269.657 57.805C269.276 58.039 268.83 58.156 268.318 58.156ZM276.819 60.86C276.308 60.86 275.836 60.7777 275.402 60.613C274.969 60.4483 274.596 60.2187 274.284 59.924C273.972 59.638 273.738 59.3 273.582 58.91L274.934 58.351C275.056 58.6803 275.277 58.9533 275.597 59.17C275.927 59.3867 276.33 59.495 276.806 59.495C277.179 59.495 277.513 59.4213 277.807 59.274C278.102 59.1353 278.336 58.9273 278.509 58.65C278.683 58.3813 278.769 58.0563 278.769 57.675V56.089L279.029 56.388C278.787 56.8387 278.449 57.181 278.015 57.415C277.591 57.649 277.11 57.766 276.572 57.766C275.922 57.766 275.337 57.6143 274.817 57.311C274.297 57.0077 273.886 56.5917 273.582 56.063C273.288 55.5343 273.14 54.9407 273.14 54.282C273.14 53.6147 273.288 53.021 273.582 52.501C273.886 51.981 274.293 51.5693 274.804 51.266C275.316 50.9627 275.901 50.811 276.559 50.811C277.097 50.811 277.573 50.928 277.989 51.162C278.414 51.3873 278.761 51.7167 279.029 52.15L278.834 52.514V50.967H280.225V57.675C280.225 58.2817 280.078 58.8233 279.783 59.3C279.497 59.7853 279.099 60.1667 278.587 60.444C278.076 60.7213 277.487 60.86 276.819 60.86ZM276.741 56.401C277.131 56.401 277.478 56.31 277.781 56.128C278.085 55.9373 278.323 55.686 278.496 55.374C278.678 55.0533 278.769 54.6937 278.769 54.295C278.769 53.8963 278.678 53.5367 278.496 53.216C278.314 52.8953 278.072 52.644 277.768 52.462C277.465 52.2713 277.123 52.176 276.741 52.176C276.343 52.176 275.987 52.2713 275.675 52.462C275.363 52.644 275.116 52.8953 274.934 53.216C274.761 53.528 274.674 53.8877 274.674 54.295C274.674 54.685 274.761 55.0403 274.934 55.361C275.116 55.6817 275.363 55.9373 275.675 56.128C275.987 56.31 276.343 56.401 276.741 56.401ZM281.945 58V48.159H283.414V52.345L283.18 52.163C283.353 51.721 283.631 51.3873 284.012 51.162C284.393 50.928 284.835 50.811 285.338 50.811C285.858 50.811 286.317 50.9237 286.716 51.149C287.115 51.3743 287.427 51.6863 287.652 52.085C287.877 52.4837 287.99 52.9387 287.99 53.45V58H286.534V53.853C286.534 53.4977 286.465 53.1987 286.326 52.956C286.196 52.7047 286.014 52.514 285.78 52.384C285.546 52.2453 285.277 52.176 284.974 52.176C284.679 52.176 284.411 52.2453 284.168 52.384C283.934 52.514 283.748 52.7047 283.609 52.956C283.479 53.2073 283.414 53.5063 283.414 53.853V58H281.945ZM292.604 58.078C291.867 58.078 291.295 57.87 290.888 57.454C290.481 57.038 290.277 56.453 290.277 55.699V52.293H289.042V50.967H289.237C289.566 50.967 289.822 50.8717 290.004 50.681C290.186 50.4903 290.277 50.2303 290.277 49.901V49.355H291.746V50.967H293.345V52.293H291.746V55.634C291.746 55.8767 291.785 56.0847 291.863 56.258C291.941 56.4227 292.067 56.5527 292.24 56.648C292.413 56.7347 292.639 56.778 292.916 56.778C292.985 56.778 293.063 56.7737 293.15 56.765C293.237 56.7563 293.319 56.7477 293.397 56.739V58C293.276 58.0173 293.141 58.0347 292.994 58.052C292.847 58.0693 292.717 58.078 292.604 58.078ZM297.431 58.156C296.711 58.156 296.079 57.9783 295.533 57.623C294.995 57.2677 294.618 56.791 294.402 56.193L295.533 55.66C295.723 56.0587 295.983 56.375 296.313 56.609C296.651 56.843 297.023 56.96 297.431 56.96C297.777 56.96 298.059 56.882 298.276 56.726C298.492 56.57 298.601 56.3577 298.601 56.089C298.601 55.9157 298.553 55.777 298.458 55.673C298.362 55.5603 298.241 55.4693 298.094 55.4C297.955 55.3307 297.812 55.2787 297.665 55.244L296.56 54.932C295.953 54.7587 295.498 54.4987 295.195 54.152C294.9 53.7967 294.753 53.385 294.753 52.917C294.753 52.4923 294.861 52.124 295.078 51.812C295.294 51.4913 295.593 51.2443 295.975 51.071C296.356 50.8977 296.785 50.811 297.262 50.811C297.903 50.811 298.475 50.9713 298.978 51.292C299.48 51.604 299.836 52.0417 300.044 52.605L298.913 53.138C298.774 52.8 298.553 52.5313 298.25 52.332C297.955 52.1327 297.621 52.033 297.249 52.033C296.928 52.033 296.672 52.111 296.482 52.267C296.291 52.4143 296.196 52.6093 296.196 52.852C296.196 53.0167 296.239 53.1553 296.326 53.268C296.412 53.372 296.525 53.4587 296.664 53.528C296.802 53.5887 296.945 53.6407 297.093 53.684L298.237 54.022C298.817 54.1867 299.264 54.4467 299.576 54.802C299.888 55.1487 300.044 55.5647 300.044 56.05C300.044 56.466 299.931 56.8343 299.706 57.155C299.489 57.467 299.186 57.714 298.796 57.896C298.406 58.0693 297.951 58.156 297.431 58.156ZM302.133 58V56.31H303.628V58H302.133Z" fill="#8B8C8C"/>
<g clip-path="url(#clip1_11185_7893)">
<path d="M369 23L359 33" stroke="#5B6067" stroke-width="1.75" stroke-linecap="round" stroke-linejoin="round"/>
<path d="M359 23L369 33" stroke="#5B6067" stroke-width="1.75" stroke-linecap="round" stroke-linejoin="round"/>
</g>
<defs>
<clipPath id="clip0_11185_7893">
<rect width="26" height="26" fill="white" transform="translate(16 27.5)"/>
</clipPath>
<clipPath id="clip1_11185_7893">
<rect width="20" height="20" fill="white" transform="translate(354 18)"/>
</clipPath>
</defs>
</svg>
